<svg xmlns="http://www.w3.org/2000/svg" version="1.1" xmlns:xlink="http://www.w3.org/1999/xlink" xmlns:svgjs="http://svgjs.dev/svgjs" viewBox="0 0 7.023775285470557 1.6609795729374306"><g transform="matrix(1,0,0,1,3.157089970690505,0.2917949905792546)"><g><path d=" M -0.132 1.0995 Q -0.1575 1.0995 -0.18 1.0935 Q -0.2415 1.0725 -0.2565 1.0094999999999998 Q -0.258 1.005 -0.258 0.9959999999999999 Q -0.258 0.9749999999999999 -0.249 0.9749999999999999 Q -0.2415 0.9749999999999999 -0.231 1.002 Q -0.2205 1.044 -0.18 1.053 Q -0.171 1.0559999999999998 -0.1575 1.0574999999999999 Q -0.14400000000000002 1.059 -0.132 1.059 Q -0.0765 1.059 -0.02625 1.0274999999999999 Q 0.024 0.9959999999999999 0.06675 0.9472499999999999 Q 0.1095 0.8985 0.14400000000000002 0.8467499999999999 Q 0.1785 0.7949999999999999 0.201 0.7529999999999999 Q 0.267 0.6269999999999999 0.312 0.4972499999999999 Q 0.357 0.36749999999999994 0.399 0.22649999999999992 Q 0.3555 0.26549999999999996 0.303 0.2849999999999999 Q 0.2505 0.3044999999999999 0.20400000000000001 0.30899999999999994 L 0.2025 0.30899999999999994 Q 0.1875 0.30899999999999994 0.1875 0.2984999999999999 Q 0.1875 0.28649999999999987 0.20550000000000002 0.28349999999999986 Q 0.249 0.2759999999999999 0.2955 0.2467499999999999 Q 0.342 0.21749999999999992 0.38175000000000003 0.17249999999999988 Q 0.4215 0.12749999999999995 0.4425 0.07499999999999984 Q 0.4455 0.06599999999999995 0.4635 0.06074999999999986 Q 0.4815 0.05549999999999988 0.4995 0.05549999999999988 Q 0.516 0.05549999999999988 0.52875 0.05999999999999994 Q 0.5415 0.06449999999999989 0.5385 0.07499999999999984 Q 0.5325 0.09149999999999991 0.52875 0.1259999999999999 Q 0.525 0.16049999999999986 0.522 0.18149999999999988 Q 0.5175 0.2084999999999999 0.5175 0.25949999999999995 Q 0.5175 0.32399999999999995 0.525 0.4109999999999999 Q 0.5325 0.4979999999999999 0.54975 0.5894999999999999 Q 0.5670000000000001 0.6809999999999999 0.594 0.7605 Q 0.621 0.8399999999999999 0.65925 0.8887499999999999 Q 0.6975 0.9374999999999999 0.7485 0.9374999999999999 Q 0.801 0.9374999999999999 0.8475 0.8865 Q 0.894 0.8354999999999999 0.9315 0.7529999999999999 Q 0.969 0.6704999999999999 0.996 0.57375 Q 1.0230000000000001 0.4769999999999999 1.03725 0.3847499999999999 Q 1.0515 0.29249999999999987 1.0515 0.22349999999999992 Q 1.0515 0.18599999999999994 1.047 0.15899999999999992 Q 1.041 0.11849999999999994 1.02975 0.08924999999999994 Q 1.0185 0.05999999999999994 1.0065 0.02849999999999986 L 1.0065 0.026999999999999913 Q 1.0065 0.020999999999999908 1.0185 0.011249999999999871 Q 1.0305 0.0014999999999999458 1.0365 -1.1102230246251565e-16 Q 1.059 -1.1102230246251565e-16 1.07775 0.020999999999999908 Q 1.0965 0.041999999999999926 1.113 0.07274999999999987 Q 1.1295 0.10349999999999993 1.1460000000000001 0.13349999999999995 Q 1.1625 0.16349999999999987 1.182 0.18149999999999988 Q 1.194 0.19199999999999995 1.20075 0.19499999999999995 Q 1.2075 0.19799999999999995 1.2225 0.19799999999999995 L 1.2315 0.1934999999999999 Q 1.2435 0.1934999999999999 1.248 0.19574999999999987 Q 1.2525 0.19799999999999995 1.254 0.20999999999999985 Q 1.254 0.22199999999999986 1.24275 0.22949999999999993 Q 1.2315 0.23699999999999988 1.2195 0.23999999999999988 Q 1.2 0.23999999999999988 1.17 0.2197499999999999 Q 1.1400000000000001 0.1994999999999999 1.125 0.1874999999999999 Q 1.1265 0.1964999999999999 1.1265 0.2054999999999999 Q 1.1265 0.2144999999999999 1.1265 0.22349999999999992 Q 1.1265 0.30599999999999994 1.1055 0.4072499999999999 Q 1.0845 0.5085 1.04775 0.6104999999999999 Q 1.0110000000000001 0.7124999999999999 0.96225 0.7979999999999999 Q 0.9135 0.8835 0.8565 0.9359999999999999 Q 0.7995 0.9884999999999999 0.738 0.9884999999999999 Q 0.666 0.9884999999999999 0.61575 0.945 Q 0.5655 0.9015 0.5317500000000001 0.828 Q 0.498 0.7545 0.47850000000000004 0.6659999999999999 Q 0.459 0.5774999999999999 0.4515 0.4852499999999999 Q 0.444 0.3929999999999999 0.444 0.3134999999999999 Q 0.3975 0.4349999999999999 0.35175 0.5429999999999999 Q 0.306 0.6509999999999999 0.246 0.7605 Q 0.219 0.8099999999999999 0.18075 0.8677499999999999 Q 0.14250000000000002 0.9254999999999999 0.0945 0.9787499999999999 Q 0.0465 1.032 -0.0105 1.06575 Q -0.0675 1.0995 -0.132 1.0995 M 1.375494873046875 0.9284999999999999 Q 1.3079948730468751 0.9284999999999999 1.258494873046875 0.8969999999999999 Q 1.2089948730468751 0.8654999999999999 1.2089948730468751 0.8009999999999999 Q 1.2089948730468751 0.7665 1.229994873046875 0.7169999999999999 Q 1.2449948730468752 0.6824999999999999 1.2854948730468752 0.6375 Q 1.3259948730468751 0.5924999999999999 1.3799948730468752 0.54975 Q 1.433994873046875 0.5069999999999999 1.4894948730468751 0.4792499999999999 Q 1.5449948730468752 0.4514999999999999 1.5899948730468751 0.4514999999999999 Q 1.606494873046875 0.4514999999999999 1.6199948730468752 0.4559999999999999 Q 1.645494873046875 0.4649999999999999 1.6552448730468752 0.48449999999999993 Q 1.664994873046875 0.5039999999999999 1.664994873046875 0.5249999999999999 Q 1.664994873046875 0.5445 1.658994873046875 0.5624999999999999 Q 1.652994873046875 0.5804999999999999 1.6439948730468752 0.5939999999999999 Q 1.616994873046875 0.6344999999999998 1.5667448730468752 0.6659999999999999 Q 1.516494873046875 0.6974999999999999 1.464744873046875 0.7154999999999999 Q 1.412994873046875 0.7334999999999999 1.3799948730468752 0.7364999999999999 L 1.376994873046875 0.7364999999999999 Q 1.3574948730468752 0.7364999999999999 1.3574948730468752 0.7244999999999999 Q 1.3574948730468752 0.7169999999999999 1.3694948730468752 0.7169999999999999 Q 1.405494873046875 0.714 1.4602448730468751 0.6832499999999999 Q 1.5149948730468752 0.6524999999999999 1.5569948730468752 0.6194999999999999 Q 1.574994873046875 0.6044999999999999 1.599744873046875 0.5774999999999999 Q 1.6244948730468751 0.5505 1.6244948730468751 0.5249999999999999 Q 1.6244948730468751 0.4979999999999999 1.598994873046875 0.4979999999999999 Q 1.5854948730468752 0.4979999999999999 1.571244873046875 0.5039999999999999 Q 1.5569948730468752 0.5099999999999999 1.547994873046875 0.5129999999999999 Q 1.504494873046875 0.5339999999999999 1.4519948730468752 0.5782499999999999 Q 1.399494873046875 0.6224999999999998 1.3567448730468752 0.6772499999999999 Q 1.3139948730468751 0.7319999999999999 1.2974948730468752 0.7874999999999999 Q 1.2929948730468752 0.7994999999999999 1.2914948730468752 0.8107499999999999 Q 1.289994873046875 0.822 1.289994873046875 0.8324999999999999 Q 1.289994873046875 0.8684999999999999 1.313244873046875 0.8835 Q 1.336494873046875 0.8985 1.3694948730468752 0.8985 Q 1.418994873046875 0.8985 1.471494873046875 0.8767499999999999 Q 1.523994873046875 0.8549999999999999 1.5734948730468752 0.8204999999999999 Q 1.622994873046875 0.7859999999999999 1.664244873046875 0.7462499999999999 Q 1.705494873046875 0.7064999999999999 1.7339948730468753 0.6689999999999999 Q 1.738494873046875 0.6629999999999999 1.7444948730468752 0.6622499999999999 Q 1.750494873046875 0.6615 1.751994873046875 0.6644999999999999 Q 1.757994873046875 0.6659999999999999 1.757994873046875 0.67275 Q 1.757994873046875 0.6794999999999999 1.7549948730468752 0.6854999999999999 Q 1.7129948730468751 0.7439999999999999 1.6537448730468751 0.7994999999999999 Q 1.594494873046875 0.8549999999999999 1.523244873046875 0.8917499999999999 Q 1.4519948730468752 0.9284999999999999 1.375494873046875 0.9284999999999999 M 1.8164494628906251 0.9209999999999999 Q 1.7534494628906252 0.9209999999999999 1.7286994628906251 0.8895 Q 1.7039494628906253 0.8579999999999999 1.7039494628906253 0.8114999999999999 Q 1.7039494628906253 0.7679999999999999 1.7241994628906252 0.702 Q 1.7444494628906253 0.6359999999999999 1.7774494628906252 0.5594999999999999 Q 1.8104494628906251 0.48299999999999993 1.8486994628906253 0.4072499999999999 Q 1.8869494628906252 0.3314999999999999 1.9251994628906253 0.26774999999999993 Q 1.9634494628906252 0.20399999999999985 1.9919494628906254 0.16499999999999992 Q 2.020449462890625 0.12749999999999995 2.053449462890625 0.08999999999999986 Q 2.0864494628906254 0.05249999999999988 2.126949462890625 0.026999999999999913 Q 2.1674494628906253 0.0014999999999999458 2.218449462890625 0.0014999999999999458 Q 2.2529494628906255 0.0014999999999999458 2.277699462890625 0.02024999999999988 Q 2.302449462890625 0.038999999999999924 2.302449462890625 0.0764999999999999 Q 2.302449462890625 0.09149999999999991 2.2971994628906254 0.11099999999999988 Q 2.291949462890625 0.13049999999999995 2.279949462890625 0.15149999999999986 Q 2.1884494628906253 0.3104999999999999 2.0616994628906253 0.4454999999999999 Q 1.9349494628906252 0.5804999999999999 1.7939494628906252 0.696 Q 1.7879494628906252 0.7184999999999999 1.7826994628906252 0.7364999999999999 Q 1.7774494628906252 0.7545 1.7744494628906253 0.7649999999999999 Q 1.7729494628906253 0.7725 1.7729494628906253 0.7807499999999999 Q 1.7729494628906253 0.7889999999999999 1.7729494628906253 0.7964999999999999 Q 1.7729494628906253 0.8324999999999999 1.7849494628906253 0.8594999999999999 Q 1.7969494628906253 0.8865 1.8254494628906253 0.8865 Q 1.8524494628906252 0.8865 1.8921994628906251 0.86025 Q 1.9319494628906253 0.8339999999999999 1.9724494628906253 0.79575 Q 2.0129494628906253 0.7575 2.045949462890625 0.7214999999999999 Q 2.078949462890625 0.6854999999999999 2.092449462890625 0.6659999999999999 Q 2.0969494628906253 0.6615 2.101449462890625 0.6615 Q 2.1074494628906253 0.6615 2.1111994628906254 0.6674999999999999 Q 2.114949462890625 0.6734999999999999 2.1104494628906254 0.6824999999999999 Q 2.0954494628906253 0.708 2.0624494628906254 0.7454999999999999 Q 2.029449462890625 0.7829999999999999 1.9889494628906252 0.8212499999999999 Q 1.9484494628906253 0.8594999999999999 1.9109494628906252 0.8879999999999999 Q 1.8644494628906252 0.9209999999999999 1.8164494628906251 0.9209999999999999 M 1.8149494628906253 0.6359999999999999 Q 1.8719494628906252 0.597 1.9334494628906254 0.5347499999999998 Q 1.9949494628906252 0.4724999999999999 2.054199462890625 0.3989999999999999 Q 2.113449462890625 0.3254999999999999 2.162199462890625 0.25349999999999995 Q 2.210949462890625 0.18149999999999988 2.240949462890625 0.12299999999999989 Q 2.2499494628906254 0.10649999999999993 2.2536994628906255 0.09374999999999989 Q 2.257449462890625 0.08099999999999985 2.257449462890625 0.0704999999999999 Q 2.257449462890625 0.041999999999999926 2.233449462890625 0.041999999999999926 Q 2.2124494628906253 0.041999999999999926 2.1809494628906254 0.06449999999999989 Q 2.099949462890625 0.12749999999999995 2.030949462890625 0.2257499999999999 Q 1.961949462890625 0.32399999999999995 1.9079494628906253 0.4319999999999999 Q 1.8539494628906252 0.5399999999999999 1.8149494628906253 0.6359999999999999 M 2.090962646484375 0.9809999999999999 Q 2.0744626464843754 0.9809999999999999 2.057962646484375 0.9764999999999999 Q 2.0414626464843755 0.972 2.033962646484375 0.9584999999999999 Q 2.0279626464843754 0.9464999999999999 2.0354626464843752 0.9292499999999999 Q 2.0429626464843755 0.9119999999999999 2.056462646484375 0.8985 Q 2.068462646484375 0.8865 2.0872126464843754 0.8744999999999999 Q 2.1059626464843753 0.8624999999999999 2.126962646484375 0.8549999999999999 L 2.1299626464843753 0.8549999999999999 Q 2.1374626464843756 0.8549999999999999 2.1374626464843756 0.86025 Q 2.1374626464843756 0.8654999999999999 2.1314626464843753 0.8699999999999999 Q 2.104462646484375 0.8835 2.0894626464843755 0.9029999999999999 Q 2.078962646484375 0.9149999999999999 2.078962646484375 0.9284999999999999 Q 2.078962646484375 0.9524999999999999 2.1074626464843753 0.9524999999999999 Q 2.138962646484375 0.9524999999999999 2.1757126464843752 0.93375 Q 2.2124626464843753 0.9149999999999999 2.2462126464843752 0.8842499999999999 Q 2.279962646484375 0.8534999999999999 2.3009626464843755 0.819 Q 2.3219626464843754 0.7845 2.3219626464843754 0.7529999999999999 Q 2.3219626464843754 0.7319999999999999 2.2994626464843755 0.7147499999999999 Q 2.2769626464843755 0.6974999999999999 2.2499626464843754 0.6832499999999999 Q 2.2229626464843752 0.6689999999999999 2.209462646484375 0.6599999999999999 Q 2.1929626464843754 0.6479999999999999 2.1794626464843754 0.6352499999999999 Q 2.1659626464843753 0.6224999999999998 2.1584626464843755 0.6074999999999999 Q 2.1464626464843755 0.6284999999999998 2.127712646484375 0.65775 Q 2.1089626464843754 0.6869999999999999 2.0834626464843753 0.7184999999999999 Q 2.0744626464843754 0.7274999999999999 2.0654626464843755 0.7274999999999999 Q 2.056462646484375 0.7274999999999999 2.056462646484375 0.72 Q 2.056462646484375 0.7154999999999999 2.0639626464843754 0.7049999999999998 Q 2.104462646484375 0.6569999999999999 2.1239626464843755 0.6164999999999999 Q 2.1434626464843753 0.5759999999999998 2.150962646484375 0.5549999999999999 Q 2.1569626464843754 0.5114999999999998 2.1914626464843754 0.4724999999999999 Q 2.2259626464843754 0.4334999999999999 2.2754626464843755 0.4042499999999999 Q 2.3249626464843756 0.3749999999999999 2.3767126464843753 0.35849999999999993 Q 2.4284626464843755 0.34199999999999986 2.4689626464843752 0.34199999999999986 Q 2.5094626464843754 0.34199999999999986 2.5409626464843753 0.3569999999999999 Q 2.572462646484375 0.3719999999999999 2.572462646484375 0.4049999999999999 Q 2.572462646484375 0.42299999999999993 2.561962646484375 0.4439999999999999 Q 2.548462646484375 0.4724999999999999 2.5169626464843753 0.4949999999999999 Q 2.5154626464843752 0.4964999999999999 2.5124626464843756 0.4964999999999999 Q 2.500462646484375 0.4964999999999999 2.500462646484375 0.48599999999999993 Q 2.500462646484375 0.4784999999999999 2.5079626464843754 0.4709999999999999 Q 2.5199626464843754 0.4604999999999999 2.5274626464843752 0.4454999999999999 Q 2.5349626464843755 0.4304999999999999 2.5349626464843755 0.4169999999999999 Q 2.5349626464843755 0.3899999999999999 2.503462646484375 0.3899999999999999 Q 2.4809626464843753 0.3899999999999999 2.4509626464843755 0.3982499999999999 Q 2.420962646484375 0.4064999999999999 2.3932126464843755 0.4177499999999999 Q 2.3654626464843753 0.4289999999999999 2.3474626464843755 0.4379999999999999 Q 2.3099626464843754 0.4559999999999999 2.2784626464843756 0.4822499999999999 Q 2.2469626464843753 0.5085 2.2184626464843755 0.5474999999999999 Q 2.1989626464843752 0.573 2.1989626464843752 0.5954999999999999 Q 2.1989626464843752 0.6224999999999998 2.2349626464843753 0.6449999999999999 Q 2.2724626464843753 0.6659999999999999 2.3092126464843754 0.6854999999999999 Q 2.3459626464843755 0.7049999999999998 2.3714626464843755 0.7274999999999999 Q 2.396962646484375 0.7499999999999999 2.396962646484375 0.7814999999999999 Q 2.396962646484375 0.816 2.3534626464843753 0.8639999999999999 Q 2.326462646484375 0.8939999999999999 2.280712646484375 0.9209999999999999 Q 2.2349626464843753 0.948 2.1839626464843755 0.9644999999999999 Q 2.1329626464843754 0.9809999999999999 2.090962646484375 0.9809999999999999 M 2.6384934082031255 0.9224999999999999 Q 2.5964934082031252 0.9224999999999999 2.5649934082031254 0.9029999999999999 Q 2.5124934082031256 0.8714999999999999 2.5124934082031256 0.7889999999999999 Q 2.5124934082031256 0.7545 2.5244934082031256 0.7094999999999999 Q 2.5349934082031256 0.6719999999999999 2.5619934082031253 0.6277499999999999 Q 2.5889934082031254 0.5834999999999999 2.6257434082031255 0.5429999999999999 Q 2.6624934082031255 0.5025 2.7059934082031254 0.4769999999999999 Q 2.7494934082031257 0.4514999999999999 2.7929934082031256 0.4514999999999999 Q 2.8109934082031254 0.4514999999999999 2.8244934082031254 0.4559999999999999 Q 2.8424934082031257 0.4619999999999999 2.8552434082031253 0.4777499999999999 Q 2.8679934082031253 0.4934999999999999 2.8679934082031253 0.5174999999999998 Q 2.8679934082031253 0.5429999999999999 2.8552434082031253 0.5459999999999999 Q 2.8424934082031257 0.5489999999999999 2.8424934082031257 0.5399999999999999 Q 2.8424934082031257 0.5369999999999999 2.8432434082031257 0.5339999999999999 Q 2.8439934082031253 0.5309999999999999 2.8439934082031253 0.5294999999999999 Q 2.8439934082031253 0.5174999999999998 2.8372434082031255 0.5077499999999999 Q 2.8304934082031252 0.4979999999999999 2.8124934082031254 0.4979999999999999 Q 2.7884934082031254 0.4979999999999999 2.7532434082031254 0.5234999999999999 Q 2.7179934082031254 0.5489999999999999 2.6812434082031253 0.5917499999999999 Q 2.6444934082031253 0.6344999999999998 2.6167434082031256 0.6854999999999999 Q 2.5889934082031254 0.7364999999999999 2.5799934082031255 0.7874999999999999 Q 2.5784934082031254 0.7949999999999999 2.5777434082031254 0.80175 Q 2.5769934082031254 0.8084999999999999 2.5769934082031254 0.816 Q 2.5769934082031254 0.8504999999999999 2.5927434082031255 0.8737499999999999 Q 2.6084934082031253 0.8969999999999999 2.6429934082031252 0.8969999999999999 Q 2.6849934082031255 0.8969999999999999 2.7239934082031256 0.8647499999999999 Q 2.7629934082031253 0.8324999999999999 2.7937434082031256 0.7874999999999999 Q 2.8244934082031254 0.7424999999999999 2.8394934082031256 0.708 Q 2.8514934082031256 0.6809999999999999 2.8559934082031253 0.6615 Q 2.8604934082031255 0.6419999999999999 2.8604934082031255 0.6284999999999998 Q 2.8604934082031255 0.6164999999999999 2.8582434082031254 0.6074999999999999 Q 2.8559934082031253 0.5984999999999999 2.8529934082031256 0.5924999999999999 Q 2.8499934082031255 0.5834999999999999 2.8499934082031255 0.579 Q 2.8499934082031255 0.567 2.8597434082031254 0.5594999999999999 Q 2.8694934082031254 0.5519999999999999 2.8799934082031253 0.5519999999999999 Q 2.8889934082031257 0.5519999999999999 2.8994934082031256 0.5579999999999998 Q 2.9114934082031256 0.5609999999999999 2.9324934082031255 0.5624999999999999 Q 2.9534934082031254 0.5639999999999998 2.9774934082031255 0.5639999999999998 Q 3.0029934082031255 0.5639999999999998 3.0292434082031257 0.5624999999999999 Q 3.0554934082031253 0.5609999999999999 3.0749934082031256 0.5564999999999999 Q 3.0779934082031257 0.5549999999999999 3.0839934082031255 0.5549999999999999 Q 3.0944934082031255 0.5549999999999999 3.0944934082031255 0.5609999999999999 Q 3.0944934082031255 0.567 3.0839934082031255 0.5714999999999999 Q 3.0314934082031257 0.5954999999999999 2.9902434082031255 0.597 Q 2.9489934082031253 0.5984999999999999 2.9189934082031255 0.5984999999999999 Q 2.9219934082031256 0.6359999999999999 2.9024934082031253 0.67875 Q 2.8829934082031254 0.7214999999999999 2.8619934082031255 0.7545 Q 2.8364934082031255 0.7919999999999999 2.8034934082031255 0.831 Q 2.7704934082031256 0.8699999999999999 2.7299934082031254 0.8962499999999999 Q 2.6894934082031257 0.9224999999999999 2.6384934082031255 0.9224999999999999 M 2.9880131835937505 0.9254999999999999 Q 2.9775131835937505 0.9254999999999999 2.9820131835937507 0.9149999999999999 Q 2.9865131835937504 0.9059999999999999 2.9985131835937504 0.8737499999999999 Q 3.0105131835937504 0.8414999999999999 3.0262631835937506 0.7964999999999999 Q 3.0420131835937507 0.7515 3.0585131835937505 0.7034999999999999 Q 3.0750131835937506 0.6555 3.0892631835937507 0.6134999999999999 Q 3.1035131835937504 0.5714999999999999 3.1125131835937507 0.5474999999999999 Q 3.1155131835937504 0.5385 3.1185131835937505 0.52125 Q 3.1215131835937506 0.5039999999999999 3.1312631835937506 0.4897499999999999 Q 3.1410131835937505 0.4754999999999999 3.1650131835937505 0.4754999999999999 Q 3.2100131835937504 0.4754999999999999 3.2100131835937504 0.4964999999999999 Q 3.2100131835937504 0.5039999999999999 3.2025131835937506 0.5219999999999999 Q 3.184513183593751 0.5624999999999999 3.1635131835937504 0.615 Q 3.1425131835937505 0.6674999999999999 3.1260131835937504 0.714 Q 3.1095131835937506 0.7605 3.1005131835937507 0.7859999999999999 Q 3.1155131835937504 0.7649999999999999 3.1492631835937503 0.726 Q 3.1830131835937507 0.6869999999999999 3.2250131835937506 0.6419999999999999 Q 3.2670131835937504 0.597 3.3127631835937503 0.5549999999999999 Q 3.3585131835937507 0.5129999999999999 3.3982631835937505 0.4867499999999999 Q 3.4380131835937506 0.4604999999999999 3.466513183593751 0.4604999999999999 Q 3.5025131835937504 0.4604999999999999 3.5025131835937504 0.4994999999999999 Q 3.5025131835937504 0.5129999999999999 3.4950131835937506 0.5399999999999999 Q 3.4815131835937505 0.5774999999999999 3.4605131835937506 0.6127499999999999 Q 3.4395131835937507 0.6479999999999999 3.4230131835937505 0.6869999999999999 Q 3.3945131835937508 0.7575 3.3900131835937506 0.8009999999999999 Q 3.3885131835937505 0.8069999999999999 3.3885131835937505 0.8122499999999999 Q 3.3885131835937505 0.8174999999999999 3.3885131835937505 0.8234999999999999 Q 3.3885131835937505 0.8835 3.4290131835937507 0.8835 Q 3.4515131835937507 0.8835 3.489013183593751 0.8564999999999999 Q 3.5265131835937504 0.8294999999999999 3.5662631835937506 0.7919999999999999 Q 3.606013183593751 0.7545 3.6375131835937506 0.71925 Q 3.6690131835937505 0.6839999999999999 3.6810131835937505 0.6659999999999999 Q 3.6855131835937507 0.6615 3.6900131835937504 0.6615 Q 3.6960131835937506 0.6615 3.699763183593751 0.6659999999999999 Q 3.7035131835937505 0.6704999999999999 3.700513183593751 0.6779999999999999 Q 3.6870131835937507 0.7034999999999999 3.654763183593751 0.7417499999999999 Q 3.6225131835937505 0.7799999999999999 3.583513183593751 0.8182499999999999 Q 3.5445131835937507 0.8564999999999999 3.5070131835937506 0.8835 Q 3.4845131835937506 0.8985 3.4515131835937507 0.9104999999999999 Q 3.418513183593751 0.9224999999999999 3.3855131835937504 0.9209999999999999 Q 3.3435131835937506 0.9164999999999999 3.325513183593751 0.8917499999999999 Q 3.3075131835937506 0.8669999999999999 3.3075131835937506 0.8324999999999999 Q 3.3075131835937506 0.7919999999999999 3.3232631835937507 0.7462499999999999 Q 3.3390131835937504 0.7004999999999999 3.3585131835937507 0.6599999999999999 Q 3.3780131835937506 0.6194999999999999 3.3900131835937506 0.5984999999999999 Q 3.4020131835937506 0.5744999999999999 3.4020131835937506 0.5609999999999999 Q 3.4020131835937506 0.5489999999999999 3.3915131835937506 0.5489999999999999 Q 3.3810131835937507 0.5489999999999999 3.3600131835937503 0.5624999999999999 Q 3.3390131835937504 0.5759999999999998 3.3030131835937504 0.609 Q 3.2700131835937505 0.6375 3.2325131835937504 0.6832499999999999 Q 3.1950131835937507 0.7289999999999999 3.1597631835937507 0.7769999999999999 Q 3.1245131835937507 0.825 3.0982631835937506 0.8594999999999999 Q 3.0720131835937505 0.8939999999999999 3.0615131835937506 0.8999999999999999 Q 3.0540131835937507 0.9045 3.0277631835937506 0.9149999999999999 Q 3.0015131835937505 0.9254999999999999 2.9880131835937505 0.9254999999999999" fill="#ffffff" fill-rule="nonzero"></path></g><g></g><g clip-path="url(#SvgjsClipPath1003)"><g clip-path="url(#SvgjsClipPath1001179389e4-d773-48c3-b686-0fad3098d868)"><path d=" M -2.4503010636851306 0.7267743832125957 C -2.453118874583014 0.4770659377904537 -2.45589086741752 0.2274376739792313 -2.458617042188639 -0.02211040822107868 L -2.4861078802167635 -0.02211040822107868 C -2.4817780732273325 0.2940342291023607 -2.4770702672150184 0.6107745012497474 -2.4719844621798153 0.9281104082210778 L -2.447277071502035 0.9281104082210778 C -2.447277071502035 0.9270795017950259 -2.447277071502035 0.9260142318214348 -2.447277071502035 0.9249833253953793 C -2.4489952488787954 0.858936587032806 -2.4495450656393585 0.7928554851227008 -2.4503010636851306 0.7267743832125957 Z" fill="#333333" transform="matrix(1,0,0,1,0,0)" fill-rule="nonzero"></path></g><g clip-path="url(#SvgjsClipPath1001179389e4-d773-48c3-b686-0fad3098d868)"><path d=" M -2.6602967026724755 0.8484900685821194 C -2.6597697949436023 0.7497979600611508 -2.6592199781830392 0.6511058515401787 -2.6586472523907894 0.5524137430192102 L -2.6861380904189103 0.5515202907832963 C -2.6860006362287723 0.676557785747886 -2.6855080920474346 0.8018129165135334 -2.684660457874901 0.9272856830802348 L -2.65998743074466 0.9281104082210778 C -2.65998743074466 0.9276980456506598 -2.65998743074466 0.9272856830802348 -2.65998743074466 0.9268733205098169 C -2.660743428790432 0.9007226608355595 -2.660434156862617 0.8746063647088377 -2.6602967026724755 0.8484900685821194 Z" fill="#333333" transform="matrix(1,0,0,1,0,0)" fill-rule="nonzero"></path></g><g clip-path="url(#SvgjsClipPath1001179389e4-d773-48c3-b686-0fad3098d868)"><path d=" M -2.248861948034042 0.8484900685821194 C -2.2483350403051694 0.7497979600611508 -2.24778522354461 0.6511058515401787 -2.247212497752356 0.5524137430192102 L -2.274531518042804 0.5515202907832963 C -2.274531518042804 0.676557785747886 -2.2740504283773113 0.8018129165135334 -2.2730882490463267 0.9272856830802348 L -2.248415221916085 0.9281104082210778 C -2.248415221916085 0.9276980456506598 -2.248415221916085 0.9272856830802348 -2.248415221916085 0.9268733205098169 C -2.249239947056928 0.9007226608355595 -2.2489650386766487 0.8746063647088377 -2.248861948034042 0.8484900685821194 Z" fill="#333333" transform="matrix(1,0,0,1,0,0)" fill-rule="nonzero"></path></g><g clip-path="url(#SvgjsClipPath1001179389e4-d773-48c3-b686-0fad3098d868)"><path d=" M -2.868642891378133 0.7875634988022872 L -2.8874053883323287 0.7866700465663731 L -2.8874053883323287 0.9272169559851644 L -2.868642891378133 0.9281104082210785 L -2.868642891378133 0.7875634988022872 Z" fill="#333333" transform="matrix(1,0,0,1,0,0)" fill-rule="nonzero"></path></g><g clip-path="url(#SvgjsClipPath1001179389e4-d773-48c3-b686-0fad3098d868)"><path d=" M -2.045739018553732 0.7875634988022872 L -2.0645358790554624 0.7866700465663731 L -2.0645358790554624 0.9272169559851644 L -2.045739018553732 0.9281104082210785 L -2.045739018553732 0.7875634988022872 Z" fill="#333333" transform="matrix(1,0,0,1,0,0)" fill-rule="nonzero"></path></g><g clip-path="url(#SvgjsClipPath1001179389e4-d773-48c3-b686-0fad3098d868)"><path d=" M -2.352914769970501 0.23585674312534577 L -2.377553433553207 0.23585674312534577 C -2.377553433553207 0.239121280141186 -2.377553433553207 0.24238581715702623 -2.3777939783859514 0.2456503541728629 L -2.3766599813172897 0.8789018081507335 C -2.3764308910003904 0.8953046748408506 -2.376178891651797 0.9117075415309642 -2.3759039832715136 0.9281104082210778 L -2.3545642202521835 0.9281104082210778 C -2.351093501951138 0.6977371855453842 -2.346454423033888 0.4664017835387094 -2.352914769970501 0.23585674312534577 Z" fill="#333333" transform="matrix(1,0,0,1,0,0)" fill-rule="nonzero"></path></g><g clip-path="url(#SvgjsClipPath1001179389e4-d773-48c3-b686-0fad3098d868)"><path d=" M -2.55851187487334 0.23585674312534577 L -2.5831849020035813 0.23585674312534577 C -2.5831849020035813 0.239121280141186 -2.5831849020035813 0.24238581715702623 -2.583391083288794 0.2456503541728629 L -2.5822914497676677 0.8789018081507335 C -2.5820165413873877 0.8953046748408506 -2.5817645420387945 0.9117075415309642 -2.5815354517218916 0.9281104082210778 L -2.5601956887025583 0.9281104082210778 C -2.5568280610441185 0.6977371855453842 -2.5521546185793405 0.4664017835387094 -2.55851187487334 0.23585674312534577 Z" fill="#333333" transform="matrix(1,0,0,1,0,0)" fill-rule="nonzero"></path></g><g clip-path="url(#SvgjsClipPath1001179389e4-d773-48c3-b686-0fad3098d868)"><path d=" M -2.762940619159989 0.7461210604748856 C -2.7631811639927335 0.7414819815576427 -2.7634217088254815 0.7368429026403962 -2.763696617205761 0.7323756414608232 L -2.785036380225095 0.7323756414608232 C -2.7858267418184024 0.74718633044848 -2.786651466959249 0.7619970194361297 -2.7874074650050176 0.7768420719713185 L -2.7874074650050176 0.9190040681242585 C -2.7871669201722735 0.9220967874024252 -2.7869951024345996 0.9251895066805848 -2.786685830506781 0.9282822259587514 L -2.762940619159989 0.9282822259587514 Z" fill="#333333" transform="matrix(1,0,0,1,0,0)" fill-rule="nonzero"></path></g><g clip-path="url(#SvgjsClipPath1001179389e4-d773-48c3-b686-0fad3098d868)"><path d=" M -2.1457713054285716 0.7461210604748856 C -2.146011850261316 0.7414819815576427 -2.1462867586415992 0.7368429026403962 -2.1465273034743473 0.7323756414608232 L -2.167867066493681 0.7323756414608232 C -2.1686688826028337 0.7471977849643217 -2.1694706987119865 0.7620199284678201 -2.170272514821143 0.7768420719713185 L -2.170272514821143 0.9190040681242585 C -2.1699976064408597 0.9220967874024252 -2.1698257887031858 0.9251895066805848 -2.169516516775367 0.9282822259587514 L -2.1457713054285716 0.9282822259587514 Z" fill="#333333" transform="matrix(1,0,0,1,0,0)" fill-rule="nonzero"></path></g><g clip-path="url(#SvgjsClipPath1001179389e4-d773-48c3-b686-0fad3098d868)"><path d=" M -1.627259736670591 0.7267743832125957 C -1.6300775475684743 0.4770659377904537 -1.632849540402977 0.2274376739792313 -1.635575715174099 -0.02211040822107868 L -1.6630665532022237 -0.02211040822107868 C -1.6587367462127889 0.2940342291023607 -1.654040394716317 0.6107745012497474 -1.6489774987128072 0.9281104082210778 L -1.624270108035027 0.9281104082210778 C -1.624270108035027 0.9270795017950259 -1.624270108035027 0.9260142318214348 -1.624270108035027 0.9249833253953793 C -1.6261257396019255 0.858936587032806 -1.6266755563624924 0.7928554851227008 -1.627259736670591 0.7267743832125957 Z" fill="#333333" transform="matrix(1,0,0,1,0,0)" fill-rule="nonzero"></path></g><g clip-path="url(#SvgjsClipPath1001179389e4-d773-48c3-b686-0fad3098d868)"><path d=" M -1.8373928298480737 0.8484900685821194 C -1.836911740182585 0.7497979600611508 -1.836361923422018 0.6511058515401787 -1.8357433795663878 0.5524137430192102 L -1.8632342175945122 0.5515202907832963 C -1.8632342175945122 0.676557785747886 -1.8627531279290164 0.8018129165135334 -1.8617909485980315 0.9272856830802348 L -1.8371179214677904 0.9281104082210778 C -1.8371179214677904 0.9276980456506598 -1.8371179214677904 0.9272856830802348 -1.8371179214677904 0.9268733205098169 C -1.8378739195135696 0.9007226608355595 -1.8375302840382155 0.8746063647088377 -1.8373928298480737 0.8484900685821194 Z" fill="#333333" transform="matrix(1,0,0,1,0,0)" fill-rule="nonzero"></path></g><g clip-path="url(#SvgjsClipPath1001179389e4-d773-48c3-b686-0fad3098d868)"><path d=" M -1.4259580752096441 0.8484900685821194 C -1.4254769855441483 0.7497979600611508 -1.4249271687835887 0.6511058515401787 -1.4243086249279582 0.5524137430192102 L -1.4517994629560755 0.5515202907832963 C -1.4517994629560755 0.676557785747886 -1.4513183732905868 0.8018129165135334 -1.4503561939596021 0.9272856830802348 L -1.4256831668293608 0.9281104082210778 C -1.4256831668293608 0.9276980456506598 -1.4256831668293608 0.9272856830802348 -1.4256831668293608 0.9268733205098169 C -1.426404801327594 0.9007226608355595 -1.426095529399786 0.8746063647088377 -1.4259580752096441 0.8484900685821194 Z" fill="#333333" transform="matrix(1,0,0,1,0,0)" fill-rule="nonzero"></path></g><g clip-path="url(#SvgjsClipPath1001179389e4-d773-48c3-b686-0fad3098d868)"><path d=" M -1.2228695092768658 0.7875634988022872 L -1.2416320062310615 0.7866700465663731 L -1.2416320062310615 0.9272169559851644 L -1.2228695092768658 0.9281104082210785 L -1.2228695092768658 0.7875634988022872 Z" fill="#333333" transform="matrix(1,0,0,1,0,0)" fill-rule="nonzero"></path></g><g clip-path="url(#SvgjsClipPath1001179389e4-d773-48c3-b686-0fad3098d868)"><path d=" M -1.5300108971460995 0.23585674312534577 L -1.5546839242763408 0.23585674312534577 C -1.5546839242763408 0.239121280141186 -1.5546839242763408 0.24238581715702623 -1.5548901055615463 0.2456503541728629 L -1.5537904720404199 0.8789018081507335 C -1.5535155636601434 0.8953046748408506 -1.5532635643115504 0.9117075415309642 -1.5530344739946476 0.9281104082210778 L -1.5316947109753174 0.9281104082210778 C -1.5282239926742718 0.6977371855453842 -1.5235849137570217 0.4664017835387094 -1.5300108971460995 0.23585674312534577 Z" fill="#333333" transform="matrix(1,0,0,1,0,0)" fill-rule="nonzero"></path></g><g clip-path="url(#SvgjsClipPath1001179389e4-d773-48c3-b686-0fad3098d868)"><path d=" M -1.7357454562390837 0.23585674312534577 L -1.760418483369325 0.23585674312534577 C -1.760418483369325 0.239121280141186 -1.760418483369325 0.24238581715702623 -1.7606246646545305 0.2456503541728629 L -1.7594906675858721 0.8789018081507335 C -1.7592386682372791 0.8953046748408506 -1.758986668888686 0.9117075415309642 -1.7587346695401 0.9281104082210778 L -1.7373949065207628 0.9281104082210778 C -1.7337867340295754 0.6977371855453842 -1.7292851093024741 0.4664017835387094 -1.7357454562390837 0.23585674312534577 Z" fill="#333333" transform="matrix(1,0,0,1,0,0)" fill-rule="nonzero"></path></g><g clip-path="url(#SvgjsClipPath1001179389e4-d773-48c3-b686-0fad3098d868)"><path d=" M -1.9399680192405167 0.7461210604748856 C -1.9402429276207998 0.7414819815576427 -1.9404834724535442 0.7368429026403962 -1.9407240172862958 0.7323756414608232 L -1.962063780305626 0.7323756414608232 C -1.9628541418989371 0.74718633044848 -1.9637132305873122 0.7619970194361297 -1.9644692286330843 0.7768420719713185 L -1.9644692286330843 0.9190040681242585 C -1.9641943202528078 0.9220967874024252 -1.9640568660626663 0.9251895066805848 -1.963747594134851 0.9282822259587514 L -1.9399680192405238 0.9282822259587514 Z" fill="#333333" transform="matrix(1,0,0,1,0,0)" fill-rule="nonzero"></path></g><g clip-path="url(#SvgjsClipPath1001179389e4-d773-48c3-b686-0fad3098d868)"><path d=" M -1.3229017961517056 0.7461210604748856 C -1.3231423409844498 0.7414819815576427 -1.3233828858172014 0.7368429026403962 -1.3236577941974847 0.7323756414608232 L -1.344997557216815 0.7323756414608232 C -1.345787918810126 0.74718633044848 -1.3466126439509691 0.7619970194361297 -1.3473686419967412 0.7768420719713185 L -1.3473686419967412 0.9190040681242585 C -1.347128097163997 0.9220967874024252 -1.3469562794263161 0.9251895066805848 -1.3466470074985009 0.9282822259587514 L -1.3229017961517056 0.9282822259587514 Z" fill="#333333" transform="matrix(1,0,0,1,0,0)" fill-rule="nonzero"></path></g><g clip-path="url(#SvgjsClipPath1001179389e4-d773-48c3-b686-0fad3098d868)"><path d=" M -0.8045276815838664 0.7267743832125957 C -0.8073454924817498 0.4770659377904537 -0.8101289398320941 0.2274376739792313 -0.8128780236349065 -0.02211040822107868 L -0.8403688616630309 -0.02211040822107868 C -0.8360390546736034 0.2940342291023607 -0.8313312486612898 0.6107745012497474 -0.8262454436260827 0.9281104082210778 L -0.8015724164958415 0.9281104082210778 C -0.8015724164958415 0.9270795017950259 -0.8015724164958415 0.9260142318214348 -0.8015724164958415 0.9249833253953793 C -0.8032218667775277 0.858936587032806 -0.8038060470856263 0.7928554851227008 -0.8045276815838664 0.7267743832125957 Z" fill="#333333" transform="matrix(1,0,0,1,0,0)" fill-rule="nonzero"></path></g><g clip-path="url(#SvgjsClipPath1001179389e4-d773-48c3-b686-0fad3098d868)"><path d=" M -1.0145233205712076 0.8484900685821194 C -1.013996412842331 0.7497979600611508 -1.0134465960817713 0.6511058515401787 -1.0128738702895215 0.5524137430192102 L -1.040364708317646 0.5515202907832963 C -1.040364708317646 0.676557785747886 -1.03988361865215 0.8018129165135334 -1.0389214393211654 0.9272856830802348 L -1.014248412190924 0.9281104082210778 C -1.014248412190924 0.9276980456506598 -1.014248412190924 0.9272856830802348 -1.014248412190924 0.9268733205098169 C -1.0149700466891645 0.9007226608355595 -1.0146607747613492 0.8746063647088377 -1.0145233205712076 0.8484900685821194 Z" fill="#333333" transform="matrix(1,0,0,1,0,0)" fill-rule="nonzero"></path></g><g clip-path="url(#SvgjsClipPath1001179389e4-d773-48c3-b686-0fad3098d868)"><path d=" M -0.6032260201229196 0.8484900685821194 C -0.6026991123940433 0.7497979600611508 -0.6021492956334837 0.6511058515401787 -0.6015765698412263 0.5524137430192102 L -0.6290674078693512 0.5515202907832963 C -0.6290674078693512 0.676557785747886 -0.6285863182038622 0.8018129165135334 -0.6276241388728776 0.9272856830802348 L -0.6029167481950974 0.9281104082210778 C -0.6029167481950974 0.9276980456506598 -0.6029167481950974 0.9272856830802348 -0.6029167481950974 0.9268733205098169 C -0.6035352920507351 0.9007226608355595 -0.6032260201229196 0.8746063647088377 -0.6032260201229196 0.8484900685821194 Z" fill="#333333" transform="matrix(1,0,0,1,0,0)" fill-rule="nonzero"></path></g><g clip-path="url(#SvgjsClipPath1001179389e4-d773-48c3-b686-0fad3098d868)"><path d=" M -0.39999999999999947 0.7875634988022872 L -0.41876249695419565 0.7866700465663731 L -0.41876249695419565 0.9272169559851644 L -0.39999999999999947 0.9281104082210785 L -0.39999999999999947 0.7875634988022872 Z" fill="#333333" transform="matrix(1,0,0,1,0,0)" fill-rule="nonzero"></path></g><g clip-path="url(#SvgjsClipPath1001179389e4-d773-48c3-b686-0fad3098d868)"><path d=" M -0.7071413878692332 0.23585674312534577 L -0.7318144149994747 0.23585674312534577 L -0.7320205962846802 0.2456503541728629 L -0.7309209627635536 0.8789018081507335 C -0.7306460543832771 0.8953046748408506 -0.7303940550346844 0.9117075415309642 -0.7301649647177815 0.9281104082210778 L -0.7087908381509123 0.9281104082210778 C -0.7053544833974055 0.6977371855453842 -0.7006810409326238 0.4664017835387094 -0.7071413878692332 0.23585674312534577 Z" fill="#333333" transform="matrix(1,0,0,1,0,0)" fill-rule="nonzero"></path></g><g clip-path="url(#SvgjsClipPath1001179389e4-d773-48c3-b686-0fad3098d868)"><path d=" M -0.9128759469622176 0.23585674312534577 L -0.9375146105449199 0.23585674312534577 C -0.9375146105449199 0.239121280141186 -0.9375146105449199 0.24238581715702623 -0.9377551553776642 0.2456503541728629 L -0.936552431213935 0.8787643539605918 C -0.9363004318653421 0.895167220650709 -0.936048432516756 0.9115700873408226 -0.935796433168163 0.9279729540309362 L -0.9144566701488328 0.9279729540309362 C -0.9110546789428509 0.6977371855453842 -0.9064156000256078 0.4664017835387094 -0.9128759469622176 0.23585674312534577 Z" fill="#333333" transform="matrix(1,0,0,1,0,0)" fill-rule="nonzero"></path></g><g clip-path="url(#SvgjsClipPath1001179389e4-d773-48c3-b686-0fad3098d868)"><path d=" M -1.1171672370587211 0.7461210604748856 C -1.1174077818914656 0.7414819815576427 -1.117682690271749 0.7368429026403962 -1.1179232351045005 0.7323756414608232 L -1.1392973616713624 0.7323756414608232 C -1.1400991777805152 0.7471977849643217 -1.140900993889668 0.7620199284678201 -1.1417028099988278 0.7768420719713185 L -1.1417028099988278 0.9190040681242585 C -1.1414279016185445 0.9220967874024252 -1.141256083880871 0.9251895066805848 -1.1409468119530557 0.9282822259587514 L -1.1172016006062602 0.9282822259587514 Z" fill="#333333" transform="matrix(1,0,0,1,0,0)" fill-rule="nonzero"></path></g><g clip-path="url(#SvgjsClipPath1001179389e4-d773-48c3-b686-0fad3098d868)"><path d=" M -0.5001353775174491 0.7461210604748856 C -0.5004102858977326 0.7414819815576427 -0.5006508307304767 0.7368429026403962 -0.5008913755632212 0.7323756414608232 L -0.5222311385825513 0.7323756414608232 C -0.5230215001758625 0.74718633044848 -0.5238805888642375 0.7619970194361297 -0.5246365869100167 0.7768420719713185 L -0.5246365869100167 0.9190040681242585 C -0.5243616785297336 0.9220967874024252 -0.5242242243395987 0.9251895066805848 -0.5239149524117765 0.9282822259587514 L -0.5001353775174491 0.9282822259587514 Z" fill="#333333" transform="matrix(1,0,0,1,0,0)" fill-rule="nonzero"></path></g></g></g><defs><clipPath id="SvgjsClipPath1003"><path d=" M -2.8874053883323287 -0.02211040822107868 h 2.487405388332329 v 0.9502208164421573 h -2.487405388332329 Z"></path></clipPath><clipPath id="SvgjsClipPath1001179389e4-d773-48c3-b686-0fad3098d868"><path d=" M -2.8874053883323287 -0.022110408221078626 L -0.3999999999999999 -0.022110408221078626 L -0.3999999999999999 0.9281104082210785 L -2.8874053883323287 0.9281104082210785 Z"></path></clipPath></defs></svg>