<svg xmlns="http://www.w3.org/2000/svg" width="244" height="244" viewBox="0 0 244 244"><style>.st0{fill:#898e91}</style><circle class="st0" cx="242" cy="242" r="2"/><circle class="st0" cx="202" cy="242" r="2"/><circle class="st0" cx="162" cy="242" r="2"/><circle class="st0" cx="122" cy="242" r="2"/><circle class="st0" cx="82" cy="242" r="2"/><circle class="st0" cx="42" cy="242" r="2"/><circle class="st0" cx="2" cy="242" r="2"/><circle class="st0" cx="242" cy="202" r="2"/><circle class="st0" cx="202" cy="202" r="2"/><circle class="st0" cx="162" cy="202" r="2"/><circle class="st0" cx="122" cy="202" r="2"/><circle class="st0" cx="82" cy="202" r="2"/><circle class="st0" cx="42" cy="202" r="2"/><circle class="st0" cx="2" cy="202" r="2"/><circle class="st0" cx="242" cy="162" r="2"/><circle class="st0" cx="202" cy="162" r="2"/><circle class="st0" cx="162" cy="162" r="2"/><circle class="st0" cx="122" cy="162" r="2"/><circle class="st0" cx="82" cy="162" r="2"/><circle class="st0" cx="42" cy="162" r="2"/><circle class="st0" cx="2" cy="162" r="2"/><circle class="st0" cx="242" cy="122" r="2"/><circle class="st0" cx="202" cy="122" r="2"/><circle class="st0" cx="162" cy="122" r="2"/><circle class="st0" cx="122" cy="122" r="2"/><circle class="st0" cx="82" cy="122" r="2"/><circle class="st0" cx="42" cy="122" r="2"/><circle class="st0" cx="2" cy="122" r="2"/><circle class="st0" cx="242" cy="82" r="2"/><circle class="st0" cx="202" cy="82" r="2"/><circle class="st0" cx="162" cy="82" r="2"/><circle class="st0" cx="122" cy="82" r="2"/><circle class="st0" cx="82" cy="82" r="2"/><circle class="st0" cx="42" cy="82" r="2"/><circle class="st0" cx="2" cy="82" r="2"/><circle class="st0" cx="242" cy="42" r="2"/><circle class="st0" cx="202" cy="42" r="2"/><circle class="st0" cx="162" cy="42" r="2"/><circle class="st0" cx="122" cy="42" r="2"/><circle class="st0" cx="82" cy="42" r="2"/><circle class="st0" cx="42" cy="42" r="2"/><circle class="st0" cx="2" cy="42" r="2"/><circle class="st0" cx="242" cy="2" r="2"/><circle class="st0" cx="202" cy="2" r="2"/><circle class="st0" cx="162" cy="2" r="2"/><circle class="st0" cx="122" cy="2" r="2"/><circle class="st0" cx="82" cy="2" r="2"/><circle class="st0" cx="42" cy="2" r="2"/><circle class="st0" cx="2" cy="2" r="2"/></svg>